<svg xmlns="http://www.w3.org/2000/svg" width="1200" height="720" viewBox="0 0 1200 720" role="img" aria-label="ER Triage preview">
  <defs>
    <linearGradient id="bg" x1="0" y1="0" x2="1" y2="1">
      <stop offset="0" stop-color="#08111A"/>
      <stop offset="0.52" stop-color="#132233"/>
      <stop offset="1" stop-color="#0F1925"/>
    </linearGradient>
    <radialGradient id="g1" cx="20%" cy="20%" r="65%"><stop offset="0" stop-color="#E76A4C" stop-opacity="0.68"/><stop offset="1" stop-color="#E76A4C" stop-opacity="0"/></radialGradient>
    <radialGradient id="g2" cx="82%" cy="18%" r="60%"><stop offset="0" stop-color="#78AFFF" stop-opacity="0.58"/><stop offset="1" stop-color="#78AFFF" stop-opacity="0"/></radialGradient>
    <linearGradient id="line" x1="0" y1="0" x2="1" y2="0"><stop offset="0" stop-color="#E76A4C"/><stop offset="0.5" stop-color="#78AFFF"/><stop offset="1" stop-color="#2FD3A3"/></linearGradient>
    <filter id="shadow"><feDropShadow dx="0" dy="18" stdDeviation="24" flood-color="#000" flood-opacity="0.35"/></filter>
  </defs>
  <rect width="1200" height="720" fill="url(#bg)"/>
  <rect width="1200" height="720" fill="url(#g1)"/>
  <rect width="1200" height="720" fill="url(#g2)"/>
  <g opacity="0.16" stroke="#F3F7FB" stroke-width="1">
    <path d="M0 120H1200M0 240H1200M0 360H1200M0 480H1200M0 600H1200"/>
    <path d="M120 0V720M240 0V720M360 0V720M480 0V720M600 0V720M720 0V720M840 0V720M960 0V720M1080 0V720"/>
  </g>
  <g filter="url(#shadow)">
    <rect x="95" y="90" width="1010" height="540" rx="42" fill="#F3F7FB" opacity="0.94"/>
    <rect x="125" y="125" width="430" height="470" rx="30" fill="#08111A"/>
    <rect x="590" y="125" width="485" height="135" rx="26" fill="#E7EEF7"/>
    <rect x="590" y="288" width="220" height="307" rx="26" fill="#E7EEF7"/>
    <rect x="835" y="288" width="240" height="307" rx="26" fill="#E7EEF7"/>
  </g>
  <g fill="none" stroke="url(#line)" stroke-width="8" stroke-linecap="round" opacity="0.9">
    <path d="M210 500 C315 310, 460 400, 520 220"/>
    <path d="M655 222 C742 176, 836 188, 1010 160"/>
    <path d="M650 525 C740 358, 850 455, 1024 336"/>
  </g>
  <g fill="#2FD3A3">
    <circle cx="210" cy="500" r="14"/><circle cx="520" cy="220" r="14"/><circle cx="1010" cy="160" r="14"/><circle cx="1024" cy="336" r="14"/>
  </g>
  <text x="170" y="210" font-family="Inter, Arial" font-size="86" font-weight="900" letter-spacing="-5" fill="#F3F7FB">ER Triage</text>
  <text x="170" y="270" font-family="Inter, Arial" font-size="28" font-weight="700" fill="#B3C0D0">workflow visibility prototype</text>
  <text x="635" y="208" font-family="Inter, Arial" font-size="34" font-weight="900" fill="#122033">routes + nodes</text>
  <text x="635" y="350" font-family="Inter, Arial" font-size="28" font-weight="900" fill="#122033">proof</text>
  <text x="880" y="350" font-family="Inter, Arial" font-size="28" font-weight="900" fill="#122033">decisions</text>
</svg>