<svg viewBox="0 0 1200 720" xmlns="http://www.w3.org/2000/svg" role="img" aria-label="Traffic AI proof visual">
  <defs>
    <linearGradient id="bg" x1="0" y1="0" x2="1" y2="1">
      <stop offset="0%" stop-color="#08111A"/>
      <stop offset="55%" stop-color="#102033"/>
      <stop offset="100%" stop-color="#0F1925"/>
    </linearGradient>
    <radialGradient id="glowA" cx="22%" cy="20%" r="65%">
      <stop offset="0%" stop-color="#E76A4C" stop-opacity="0.45"/>
      <stop offset="100%" stop-color="#E76A4C" stop-opacity="0"/>
    </radialGradient>
    <radialGradient id="glowB" cx="82%" cy="22%" r="55%">
      <stop offset="0%" stop-color="#2FD3A3" stop-opacity="0.26"/>
      <stop offset="100%" stop-color="#2FD3A3" stop-opacity="0"/>
    </radialGradient>
  </defs>
  <rect width="1200" height="720" fill="url(#bg)"/>
  <rect width="1200" height="720" fill="url(#glowA)"/>
  <rect width="1200" height="720" fill="url(#glowB)"/>
  <g opacity="0.18" stroke="#F3F7FB" stroke-width="2" fill="none">
    <path d="M105 175 C265 75 430 230 610 168 S905 105 1092 246"/>
    <path d="M118 530 C298 394 448 462 624 385 S904 345 1082 468"/>
    <path d="M248 260 C418 354 584 270 760 354 S958 480 1042 326"/>
  </g>
  <g font-family="Inter, Arial, sans-serif">
    <rect x="78" y="70" width="1044" height="580" rx="46" fill="rgba(243,247,251,0.08)" stroke="rgba(243,247,251,0.18)"/>
    <rect x="130" y="132" width="344" height="420" rx="28" fill="#0A1020" stroke="rgba(243,247,251,0.18)"/>
    <rect x="516" y="132" width="554" height="420" rx="28" fill="rgba(243,247,251,0.86)"/>
    <text x="166" y="218" font-size="58" font-weight="900" fill="#F3F7FB" letter-spacing="-3">Traffic AI</text>
    <text x="166" y="265" font-size="22" font-weight="700" fill="#B3C0D0">city-scale reasoning concept</text>
    <path d="M166 466 C248 342 342 410 414 265" fill="none" stroke="#E76A4C" stroke-width="8" stroke-linecap="round"/>
    <circle cx="166" cy="466" r="12" fill="#F4C15D"/>
    <circle cx="414" cy="265" r="12" fill="#F4C15D"/>
    <text x="582" y="208" font-size="30" font-weight="900" fill="#122033">routes + nodes</text>
    <text x="582" y="323" font-size="24" font-weight="900" fill="#122033">proof</text>
    <text x="807" y="323" font-size="24" font-weight="900" fill="#122033">decisions</text>
    <path d="M592 452 C652 330 762 390 862 254" fill="none" stroke="#78AFFF" stroke-width="6" stroke-linecap="round"/>
    <path d="M846 455 C900 350 1010 395 1040 278" fill="none" stroke="#E76A4C" stroke-width="6" stroke-linecap="round"/>
    <circle cx="862" cy="254" r="10" fill="#F4C15D"/>
    <circle cx="1040" cy="278" r="10" fill="#F4C15D"/>
  </g>
</svg>